<?xml version="1.0" encoding="UTF-8"?>
<svg xmlns="http://www.w3.org/2000/svg" version="1.1" viewBox="0 0 872.3651452 174.473029">
  <!-- Generator: Adobe Illustrator 28.6.0, SVG Export Plug-In . SVG Version: 1.2.0 Build 709)  -->
  <g>
    <g id="Capa_1">
      <g>
        <path d="M215.6461526,57.4957333c.1699829,0,.3499756,0,.5199585.0099487V6.3356991H7.2761575v162.3599854h208.8899536v-78.9199829c-1.3999634-.2299805-3.0499878-.3699951-5-.3699951-1.8199463,0-3.4799805.1199951-5,.3599854v68.9299927H17.2761575V16.3356991h188.8899536v41.9400024c3.0200195-.5200195,6.1900024-.7799683,9.4800415-.7799683Z"/>
        <path d="M168.6265803,137.3824908v-67.2890625h12.8447266l1.2963867,16.9697266c5.1850586-12.0205078,16.6162109-19.5625,32.878418-19.5625,7.777832,0,14.0234375,1.4140625,19.2084961,4.2431641,10.3701172,5.65625,15.7910156,16.1445312,15.7910156,29.6962891v35.9423828h-14.7304688v-32.7607422c0-5.0673828-.7070312-9.5449219-2.4746094-13.3164062-3.1816406-7.5419922-10.1347656-11.9023438-22.2724609-11.9023438-18.0302734,0-27.6933594,10.0166016-27.6933594,28.2822266v29.6972656h-14.8481445Z"/>
        <path d="M60.2853508,137.3824908h-13.9057617v-54.9150391h-18.5014648v-12.3740234h18.5014648v-2.7099609c0-7.3066406.8251953-12.9628906,2.5927734-16.8515625,3.4174805-8.0136719,11.1953125-10.6064453,25.21875-10.6064453h11.7841797v11.6669922h-10.4882812c-3.8886719,0-6.9526367.4707031-9.1914062,1.0605469-4.4785156,1.53125-5.8925781,5.65625-5.8925781,14.6123047v2.828125h25.5722656v12.3740234h-25.5722656l-.1176758,54.9150391Z"/>
        <path d="M145.1666194,137.3824908c-7.777832,0-13.7875977-1.0605469-18.2661133-2.9462891-8.9560547-4.125-12.3735352-13.0810547-12.3735352-28.9892578v-22.9905124h-18.265625v-12.3630032h3.7709961c3.1816406-.1181641,6.4814453-.2353516,8.0131836-.3535156,5.4208984-.5888672,6.3637695-1.7675781,7.3066406-6.2451172.824707-3.6533203.9428711-8.7207031.9428711-12.8457031h12.1376953v19.4443359h29.5786133v12.3630032h-29.5786133v20.7512546c0,6.1279297.5893555,10.6054688,1.6499023,13.7880859,2.3569336,6.0097656,7.7773438,7.5419922,18.6191406,7.5419922h9.3095703v12.8447266h-12.8447266Z"/>
      </g>
      <g>
        <path d="M357.6286125,129.3688189c-7.4238281,6.3632812-18.1474609,10.2529297-32.8779297,10.2529297-19.0908203,0-27.9287109-6.5996094-27.9287109-18.7373047v-.1181641c0-7.3066406,3.1816406-12.609375,9.5449219-16.0263672,2.2392578-1.296875,4.7138672-2.3574219,7.5419922-3.1816406,5.65625-1.7685547,14.2587891-2.9462891,28.6357422-3.7714844,5.8925781-.3535156,10.3701172-.8251953,13.6699219-1.2958984,6.5996094-.9433594,9.0742188-2.8291016,9.0742188-6.5996094v-.1181641c0-1.8847656-.7070312-3.6533203-2.1210938-5.4208984-2.7109375-3.4169922-9.0742188-6.0097656-20.9765625-6.0097656-19.9150391,0-27.3398438,4.9492188-28.7539062,15.6738281h-15.0839844c2.2392578-18.2666016,16.4980469-26.515625,42.6591797-26.515625,26.0439453,0,38.2998047,7.5419922,38.2998047,25.5722656v44.3095703h-12.0205078l-1.4140625-18.5019531c-1.8857422,3.8886719-4.5957031,7.3066406-8.2490234,10.4882812ZM355.5075187,121.0016314c6.4814453-4.9492188,10.0166016-10.9589844,10.0166016-16.8515625v-2.828125c-2.2392578,2.9462891-7.8955078,4.7138672-21.6826172,5.5390625-15.4375.8242188-22.6259766,2.1210938-26.7509766,4.8310547-3.1816406,1.8857422-4.7138672,4.5957031-4.7138672,7.8955078v.1181641c0,5.65625,4.3603516,9.3095703,16.3808594,9.3095703,11.1943359,0,20.2685547-3.0634766,26.75-8.0136719Z"/>
        <path d="M406.3073234,166.2535845c-11.7841797-2.4746094-16.4980469-7.5419922-16.4980469-14.8476562,0-9.1923828,7.3066406-13.7880859,22.1542969-15.3203125-13.5517578-.4707031-20.3867188-3.6523438-20.3867188-12.0195312,0-7.7783203,6.953125-13.6699219,23.3330078-14.2587891-14.0234375-1.8857422-21.4472656-7.1884766-21.4472656-18.7373047,0-13.0810547,11.5488281-21.5654297,34.1748047-22.1552734,2.3564453-.4707031,6.5986328-.4707031,10.0166016-.5888672,5.4208984-.1181641,9.5449219-.4716797,12.4912109-1.2958984,6.0097656-1.5322266,8.0136719-5.4208984,8.0136719-13.1992188v-.8242188h15.9091797v.7070312c0,7.4238281-1.0615234,11.5488281-4.8320312,13.7871094-3.7714844,2.3574219-10.4882812,2.9462891-21.6835938,3.0644531,18.0302734,1.2958984,26.8691406,7.6591797,26.8691406,20.6220703,0,15.2021484-13.3164062,21.4482422-39.0068359,21.4482422h-8.2490234c-6.1279297,0-10.8417969.3535156-14.1416016.8242188-6.5986328,1.296875-8.7197266,3.2998047-8.7197266,6.2460938,0,3.4169922,4.3603516,5.5390625,19.2080078,5.4208984h22.390625c22.6259766,0,32.8779297,5.4208984,32.8779297,19.4443359v.3535156c0,4.7138672-1.53125,8.7197266-4.359375,12.3730469-5.8925781,6.953125-18.3837891,10.9599609-40.0673828,10.9599609h-4.4775391c-9.8994141,0-17.6767578-.5898438-23.5693359-2.0039062ZM453.7985343,155.1764361c8.484375-1.8857422,11.3125-5.4208984,11.3125-9.6630859v-.3535156c0-2.0029297-.4707031-3.7705078-1.7675781-5.0673828-2.3564453-2.7099609-7.8955078-4.0068359-19.0898438-4.0068359h-18.2666016c-13.3164062.1181641-21.3291016,2.9462891-21.3291016,10.4882812,0,6.953125,7.8955078,10.0166016,27.4570312,10.0166016h3.7714844c7.7773438,0,13.6699219-.4707031,17.9121094-1.4140625ZM460.2799797,91.0699908c0-8.4853516-7.1884766-12.4921875-25.21875-12.4921875-1.8857422,0-4.9492188,0-7.3066406.4716797-13.9052734.5898438-19.796875,4.3603516-19.796875,12.1376953,0,9.1923828,9.1914062,11.5488281,26.0429688,11.5488281,17.7949219,0,26.2792969-2.9462891,26.2792969-11.6660156Z"/>
        <path d="M527.3415031,139.6217486c-10.2529297,0-18.3837891-1.4150391-24.8652344-4.2431641-12.9628906-5.8916016-18.7373047-16.3798828-18.7373047-30.7568359,0-7.3066406,1.8857422-13.5517578,5.3027344-19.2089844,7.0703125-11.1943359,20.7402344-17.9121094,39.4775391-17.9121094,9.1923828,0,16.9697266,1.4140625,23.5693359,4.3603516,13.0800781,5.8925781,20.1513672,16.4980469,20.1513672,31.3466797v5.8925781h-74.5957031c1.8857422,12.6083984,11.6669922,18.9726562,30.875,18.9726562,14.3769531,0,22.1552734-3.1816406,26.2792969-9.78125h16.2626953c-7.3066406,15.7910156-22.2724609,21.3300781-43.7197266,21.3300781ZM497.8805656,98.3756549h59.9824219c-1.8857422-13.0800781-11.4316406-19.4433594-28.9902344-19.4433594s-28.5175781,6.5986328-30.9921875,19.4433594Z"/>
        <path d="M585.6833,137.3824908v-67.2890625h12.8457031l1.2958984,16.9697266c5.1855469-12.0205078,16.6162109-19.5625,32.8789062-19.5625,7.7773438,0,14.0224609,1.4140625,19.2080078,4.2431641,10.3701172,5.65625,15.7910156,16.1445312,15.7910156,29.6962891v35.9423828h-14.7304688v-32.7607422c0-5.0673828-.7070312-9.5449219-2.4746094-13.3164062-3.1816406-7.5419922-10.1347656-11.9023438-22.2724609-11.9023438-18.0302734,0-27.6933594,10.0166016-27.6933594,28.2822266v29.6972656h-14.8486328Z"/>
        <path d="M725.5729484,139.6217486c-31.1103516,0-44.4267578-13.1992188-44.4267578-35.5888672,0-7.7783203,1.8857422-14.2597656,5.7744141-19.6806641,7.5419922-11.0771484,21.4472656-16.8515625,39.0058594-16.8515625,25.4541016,0,41.2451172,10.7236328,44.1914062,30.5214844h-15.7910156c-2.4746094-12.4912109-12.1376953-18.6191406-28.2822266-18.6191406-18.265625,0-29.9326172,8.0136719-29.9326172,24.6298828,0,15.6728516,9.8994141,23.3330078,29.9326172,23.3330078,16.7333984,0,25.6894531-6.0107422,28.4003906-18.6201172h15.6728516c-2.4746094,19.5625-17.9121094,30.8759766-44.5449219,30.8759766Z"/>
        <path d="M775.667675,154.5875689h7.3066406c6.9521484,0,11.4306641-.8251953,14.8476562-3.1816406,3.4179688-2.3574219,6.5996094-6.4814453,10.4882812-13.0810547l2.2392578-3.7705078-38.1816406-64.4609375h16.1445312l29.4609375,50.5546875.2353516.7070312.3535156-.7070312,29.1074219-50.5546875h15.9091797l-41.7167969,71.0595703c-6.8349609,11.6669922-11.5488281,18.1484375-16.96875,21.8017578-5.5390625,3.6523438-12.0205078,4.4775391-22.6269531,4.4775391h-6.4804688l-.1181641-12.8447266Z"/>
      </g>
    </g>
  </g>
</svg>