<?xml version="1.0" encoding="UTF-8"?>
<svg xmlns="http://www.w3.org/2000/svg" version="1.1" viewBox="0 0 60 60">
  <defs>
    <style>
      .cls-1, .cls-2, .cls-3 {
        fill: #aaf74d;
      }

      .cls-2 {
        fill-opacity: .1;
      }

      .cls-3 {
        fill-opacity: .32;
      }
    </style>
  </defs>
  <!-- Generator: Adobe Illustrator 28.6.0, SVG Export Plug-In . SVG Version: 1.2.0 Build 709)  -->
  <g>
    <g id="Capa_1">
      <g>
        <g>
          <path class="cls-2" d="M39.7192834,59.299372c10.7361532,0,19.4395906-8.7450891,19.4395906-19.5328495,0-10.7876187-8.7034374-19.5327051-19.4395906-19.5327051s-19.4395933,8.7450864-19.4395933,19.5327051c0,10.7877604,8.7034401,19.5328495,19.4395933,19.5328495Z"/>
          <path class="cls-1" d="M39.7195974,60c-11.1058614,0-20.1410572-9.0769652-20.1410572-20.2328129,0-11.1572172,9.0351958-20.2348672,20.1410572-20.2348672,11.1051767,0,20.1410572,9.07765,20.1410572,20.2348672,0,11.1558477-9.0358806,20.2328129-20.1410572,20.2328129ZM39.7195974,20.9346754c-10.3327855,0-18.7387017,8.4483703-18.7387017,18.8325116,0,10.3834566,8.4059162,18.8304574,18.7387017,18.8304574s18.7387017-8.4470008,18.7387017-18.8304574c0-10.3841413-8.4059162-18.8325116-18.7387017-18.8325116Z"/>
        </g>
        <g>
          <path class="cls-2" d="M20.2801101,59.299372c10.7361532,0,19.4395906-8.7450891,19.4395906-19.5328495,0-10.7876187-8.7034374-19.5327051-19.4395906-19.5327051S.8405181,28.9789038.8405181,39.7665225c0,10.7877604,8.7034388,19.5328495,19.4395919,19.5328495Z"/>
          <path class="cls-1" d="M20.2804026,60C9.1745412,60,.1393454,50.9230348.1393454,39.7671871.1393454,28.6099699,9.1745412,19.5323199,20.2804026,19.5323199c11.1051767,0,20.1403725,9.07765,20.1403725,20.2348672,0,11.1558477-9.0351958,20.2328129-20.1403725,20.2328129ZM20.2804026,20.9346754C9.9476171,20.9346754,1.5417009,29.3830457,1.5417009,39.7671871c0,10.3834566,8.4059162,18.8304574,18.7387017,18.8304574,10.3321008,0,18.738017-8.4470008,18.738017-18.8304574,0-10.3841413-8.4059162-18.8325116-18.738017-18.8325116Z"/>
        </g>
        <g>
          <path class="cls-2" d="M29.9994186,39.7665225c10.7361532,0,19.4394515-8.7450891,19.4394515-19.5328468C49.4388701,9.446057,40.7355718.7009665,29.9994186.7009665S10.5598226,9.446057,10.5598226,20.2336756c0,10.7877577,8.7034401,19.5328468,19.439596,19.5328468Z"/>
          <path class="cls-1" d="M29.9996576,40.4683648c-11.1058614,0-20.1410572-9.07765-20.1410572-20.2348672C9.8586004,9.0769652,18.8937962,0,29.9996576,0s20.1403725,9.0769652,20.1403725,20.2334977c0,11.1572172-9.0345111,20.2348672-20.1403725,20.2348672ZM29.9996576,1.4023555c-10.3327855,0-18.7387017,8.4476856-18.7387017,18.8311422,0,10.3841413,8.4059162,18.8325116,18.7387017,18.8325116,10.3321008,0,18.738017-8.4483703,18.738017-18.8325116,0-10.3834566-8.4059162-18.8311422-18.738017-18.8311422Z"/>
        </g>
        <path class="cls-3" d="M20.4399791,37.2457929c.7899484-6.1595657,4.4355116-11.4205039,9.5594395-14.3988269,5.1239226,2.978323,8.7694885,8.2392613,9.5592924,14.3988269-2.8225197,1.6049916-6.0845381,2.5207296-9.5592924,2.5207296-3.4748988,0-6.7364972-.915738-9.5594395-2.5207296Z"/>
      </g>
    </g>
  </g>
</svg>